<svg width="1024" height="1024" viewBox="0 0 1024 1024" fill="none" xmlns="http://www.w3.org/2000/svg">
  <rect x="72" y="72" width="880" height="880" rx="210" fill="#181B24"/>
  <rect x="138" y="138" width="748" height="748" rx="140" fill="#202430"/>
  <path d="M310 250H714" stroke="#4E586C" stroke-width="24" stroke-linecap="round" stroke-linejoin="round"/>
  <circle cx="310" cy="250" r="54" fill="#75ABFF"/>
  <circle cx="512" cy="250" r="54" fill="#40BE75"/>
  <circle cx="714" cy="250" r="54" fill="#FFCC47"/>
  <circle cx="310" cy="250" r="20" fill="#EEF2F7"/>
  <circle cx="512" cy="250" r="20" fill="#EEF2F7"/>
  <circle cx="714" cy="250" r="20" fill="#EEF2F7"/>
  <rect x="250" y="360" width="520" height="42" rx="21" fill="#626B7E"/>
  <rect x="250" y="360" width="322" height="42" rx="21" fill="#75ABFF"/>
  <rect x="250" y="510" width="520" height="42" rx="21" fill="#626B7E"/>
  <rect x="250" y="510" width="458" height="42" rx="21" fill="#FFCC47"/>
  <rect x="250" y="660" width="520" height="42" rx="21" fill="#626B7E"/>
  <rect x="250" y="660" width="218" height="42" rx="21" fill="#40BE75"/>
  <circle cx="790" cy="785" r="58" fill="#40BE75"/>
  <path d="M760 785L782 809L826 757" stroke="#EEF2F7" stroke-width="18" stroke-linecap="round" stroke-linejoin="round"/>
</svg>
